<?xml version="1.0" standalone="no"?>
<!DOCTYPE svg PUBLIC "-//W3C//DTD SVG 20010904//EN"
 "http://www.w3.org/TR/2001/REC-SVG-20010904/DTD/svg10.dtd">
<svg version="1.0" xmlns="http://www.w3.org/2000/svg"
 width="267.000000pt" height="300.000000pt" viewBox="0 0 267.000000 300.000000"
 preserveAspectRatio="xMidYMid meet">

<g transform="translate(0.000000,300.000000) scale(0.100000,-0.100000)"
fill="#000000" stroke="none">
<path d="M2415 2129 c-115 -66 -212 -124 -215 -128 -6 -9 -427 -251 -436 -251
-19 0 -844 -484 -844 -496 0 -25 85 -118 148 -161 93 -63 180 -87 301 -80 115
6 180 28 266 92 33 25 76 67 95 95 19 27 38 49 42 50 13 0 428 -243 428 -250
0 -15 -94 -136 -149 -193 -115 -119 -270 -212 -438 -264 -81 -25 -101 -27
-268 -27 -167 0 -186 2 -266 27 -48 14 -113 38 -145 52 -146 65 -321 212 -411
347 -24 38 -46 68 -47 68 -16 0 -432 -252 -434 -263 -2 -8 16 -31 40 -52 36
-31 689 -414 1067 -626 121 -68 170 -79 251 -57 62 17 1141 635 1191 682 17
16 40 47 52 70 l22 41 0 690 c0 562 -3 696 -14 723 -7 17 -16 32 -20 32 -4 0
-101 -54 -216 -121z m-307 -411 l3 -68 69 0 70 0 0 70 0 70 35 0 35 0 0 -70 0
-70 70 0 70 0 0 -40 0 -40 -70 0 -71 0 3 -67 3 -68 68 -3 67 -3 0 -34 0 -35
-70 0 -70 0 0 -70 0 -70 -35 0 -35 0 0 70 0 70 -70 0 -70 0 0 -70 0 -70 -35 0
-35 0 0 70 0 70 -70 0 -70 0 0 35 0 34 68 3 67 3 3 68 3 67 -71 0 -70 0 0 40
0 40 70 0 70 0 0 71 0 70 33 -3 32 -3 3 -67z"/>
<path d="M2110 1500 l0 -71 68 3 67 3 3 68 3 67 -71 0 -70 0 0 -70z"/>
</g>
</svg>
